#Comment line ignore any data following # character 
#Hierarchical Translation and Rotation (.htr) file 
[Header]	
#Header keywords are followed by a single value 
FileType HTR		#Single word string
DataType HTRS		#Translation followed by rotation and scale data
FileVersion 1		#integer
NumSegments 84		#integer
NumFrames 2		#integer
DataFrameRate 30		#integer, data frame rate in this file
EulerRotationOrder ZYX
CalibrationUnits mm
RotationUnits Degrees
GlobalAxisofGravity Y
BoneLengthAxis Y
ScaleFactor 1.00
[SegmentNames&Hierarchy]
#CHILD	PARENT
MASTER GLOBAL
root MASTER
chest root
L_mid_tent01 root
R_mid_tent01 root
spine01 root
Bip01_Neck chest
L_humerus chest
R_humerus chest
weapon_bone chest
Bip01_Head Bip01_Neck
eye_left_bone Bip01_Head
eye_right_bone Bip01_Head
L_forearm L_humerus
L_front_hand L_forearm
L_weapon_bone L_forearm
L_front_hand01_01 L_front_hand
L_front_hand02_01 L_front_hand
L_front_hand03_01 L_front_hand
L_front_hand01_02 L_front_hand01_01
L_front_hand02_02 L_front_hand02_01
L_front_hand03_02 L_front_hand03_01
R_forearm R_humerus
R_front_hand R_forearm
R_weapon_bone R_forearm
R_front_hand01_01 R_front_hand
R_front_hand02_01 R_front_hand
R_front_hand03_01 R_front_hand
R_front_hand01_02 R_front_hand01_01
R_front_hand02_02 R_front_hand02_01
R_front_hand03_02 R_front_hand03_01
null_rope01_connect L_mid_tent01
Rope1_Seg01 null_rope01_connect
Rope1_Seg02 Rope1_Seg01
Rope1_Seg03 Rope1_Seg02
Rope1_Seg04 Rope1_Seg03
Rope1_Seg05 Rope1_Seg04
Rope1_Seg06 Rope1_Seg05
Rope1_Seg07 Rope1_Seg06
Rope1_Seg09 Rope1_Seg07
L_mid_hand01 Rope1_Seg09
L_mid_hand02 Rope1_Seg09
L_mid_hand03 Rope1_Seg09
null_rope02_connect R_mid_tent01
Rope2_Seg01 null_rope02_connect
Rope2_Seg02 Rope2_Seg01
Rope2_Seg03 Rope2_Seg02
Rope2_Seg04 Rope2_Seg03
Rope2_Seg05 Rope2_Seg04
Rope2_Seg06 Rope2_Seg05
Rope2_Seg07 Rope2_Seg06
Rope2_Seg09 Rope2_Seg07
R_mid_hand01 Rope2_Seg09
R_mid_hand02 Rope2_Seg09
R_mid_hand03 Rope2_Seg09
spine02 spine01
spine03 spine02
pelvis spine03
null_rope03_connect pelvis
null_rope04_connect pelvis
Rope3_Seg01 null_rope03_connect
Rope3_Seg02 Rope3_Seg01
Rope3_Seg03 Rope3_Seg02
Rope3_Seg04 Rope3_Seg03
Rope3_Seg05 Rope3_Seg04
Rope3_Seg06 Rope3_Seg05
Rope3_Seg07 Rope3_Seg06
Rope3_Seg08 Rope3_Seg07
Rope3_Seg09 Rope3_Seg08
R_rear_hand01 Rope3_Seg09
R_rear_hand02 Rope3_Seg09
R_rear_hand03 Rope3_Seg09
Rope4_Seg01 null_rope04_connect
Rope4_Seg02 Rope4_Seg01
Rope4_Seg03 Rope4_Seg02
Rope4_Seg04 Rope4_Seg03
Rope4_Seg05 Rope4_Seg04
Rope4_Seg06 Rope4_Seg05
Rope4_Seg07 Rope4_Seg06
Rope4_Seg08 Rope4_Seg07
Rope4_Seg09 Rope4_Seg08
L_rear_hand01 Rope4_Seg09
L_rear_hand02 Rope4_Seg09
L_rear_hand03 Rope4_Seg09
[BasePosition]
#SegmentName Tx, Ty, Tz, Rx, Ry, Rz, BoneLength
MASTER 0.000000 0.000000 0.000000 -90.000000 0.000000 0.000000 10.000000 
root 0.000000 0.000000 0.000000 0.000000 0.000000 0.000000 10.000000 
chest 0.000000 0.000000 0.000000 0.000000 0.000000 0.000000 10.000000 
L_mid_tent01 0.000000 0.000000 0.000000 0.000000 0.000000 0.000000 10.000000 
R_mid_tent01 0.000000 0.000000 0.000000 0.000000 0.000000 0.000000 10.000000 
spine01 0.000000 0.000000 0.000000 0.000000 0.000000 0.000000 10.000000 
Bip01_Neck 0.000000 0.000000 0.000000 0.000000 0.000000 0.000000 10.000000 
L_humerus 0.000000 0.000000 0.000000 0.000000 0.000000 0.000000 10.000000 
R_humerus 0.000000 0.000000 0.000000 0.000000 0.000000 0.000000 10.000000 
weapon_bone 0.000000 0.000000 0.000000 0.000000 0.000000 0.000000 10.000000 
Bip01_Head 0.000000 0.000000 0.000000 0.000000 0.000000 0.000000 10.000000 
eye_left_bone 0.000000 0.000000 0.000000 0.000000 0.000000 0.000000 10.000000 
eye_right_bone 0.000000 0.000000 0.000000 0.000000 0.000000 0.000000 10.000000 
L_forearm 0.000000 0.000000 0.000000 0.000000 0.000000 0.000000 10.000000 
L_front_hand 0.000000 0.000000 0.000000 0.000000 0.000000 0.000000 10.000000 
L_weapon_bone 0.000000 0.000000 0.000000 0.000000 0.000000 0.000000 10.000000 
L_front_hand01_01 0.000000 0.000000 0.000000 0.000000 0.000000 0.000000 10.000000 
L_front_hand02_01 0.000000 0.000000 0.000000 0.000000 0.000000 0.000000 10.000000 
L_front_hand03_01 0.000000 0.000000 0.000000 0.000000 0.000000 0.000000 10.000000 
L_front_hand01_02 0.000000 0.000000 0.000000 0.000000 0.000000 0.000000 10.000000 
L_front_hand02_02 0.000000 0.000000 0.000000 0.000000 0.000000 0.000000 10.000000 
L_front_hand03_02 0.000000 0.000000 0.000000 0.000000 0.000000 0.000000 10.000000 
R_forearm 0.000000 0.000000 0.000000 0.000000 0.000000 0.000000 10.000000 
R_front_hand 0.000000 0.000000 0.000000 0.000000 0.000000 0.000000 10.000000 
R_weapon_bone 0.000000 0.000000 0.000000 0.000000 0.000000 0.000000 10.000000 
R_front_hand01_01 0.000000 0.000000 0.000000 0.000000 0.000000 0.000000 10.000000 
R_front_hand02_01 0.000000 0.000000 0.000000 0.000000 0.000000 0.000000 10.000000 
R_front_hand03_01 0.000000 0.000000 0.000000 0.000000 0.000000 0.000000 10.000000 
R_front_hand01_02 0.000000 0.000000 0.000000 0.000000 0.000000 0.000000 10.000000 
R_front_hand02_02 0.000000 0.000000 0.000000 0.000000 0.000000 0.000000 10.000000 
R_front_hand03_02 0.000000 0.000000 0.000000 0.000000 0.000000 0.000000 10.000000 
null_rope01_connect 0.000000 0.000000 0.000000 0.000000 0.000000 0.000000 10.000000 
Rope1_Seg01 0.000000 0.000000 0.000000 0.000000 0.000000 0.000000 10.000000 
Rope1_Seg02 0.000000 0.000000 0.000000 0.000000 0.000000 0.000000 10.000000 
Rope1_Seg03 0.000000 0.000000 0.000000 0.000000 0.000000 0.000000 10.000000 
Rope1_Seg04 0.000000 0.000000 0.000000 0.000000 0.000000 0.000000 10.000000 
Rope1_Seg05 0.000000 0.000000 0.000000 0.000000 0.000000 0.000000 10.000000 
Rope1_Seg06 0.000000 0.000000 0.000000 0.000000 0.000000 0.000000 10.000000 
Rope1_Seg07 0.000000 0.000000 0.000000 0.000000 0.000000 0.000000 10.000000 
Rope1_Seg09 0.000000 0.000000 0.000000 0.000000 0.000000 0.000000 10.000000 
L_mid_hand01 0.000000 0.000000 0.000000 0.000000 0.000000 0.000000 10.000000 
L_mid_hand02 0.000000 0.000000 0.000000 0.000000 0.000000 0.000000 10.000000 
L_mid_hand03 0.000000 0.000000 0.000000 0.000000 0.000000 0.000000 10.000000 
null_rope02_connect 0.000000 0.000000 0.000000 0.000000 0.000000 0.000000 10.000000 
Rope2_Seg01 0.000000 0.000000 0.000000 0.000000 0.000000 0.000000 10.000000 
Rope2_Seg02 0.000000 0.000000 0.000000 0.000000 0.000000 0.000000 10.000000 
Rope2_Seg03 0.000000 0.000000 0.000000 0.000000 0.000000 0.000000 10.000000 
Rope2_Seg04 0.000000 0.000000 0.000000 0.000000 0.000000 0.000000 10.000000 
Rope2_Seg05 0.000000 0.000000 0.000000 0.000000 0.000000 0.000000 10.000000 
Rope2_Seg06 0.000000 0.000000 0.000000 0.000000 0.000000 0.000000 10.000000 
Rope2_Seg07 0.000000 0.000000 0.000000 0.000000 0.000000 0.000000 10.000000 
Rope2_Seg09 0.000000 0.000000 0.000000 0.000000 0.000000 0.000000 10.000000 
R_mid_hand01 0.000000 0.000000 0.000000 0.000000 0.000000 0.000000 10.000000 
R_mid_hand02 0.000000 0.000000 0.000000 0.000000 0.000000 0.000000 10.000000 
R_mid_hand03 0.000000 0.000000 0.000000 0.000000 0.000000 0.000000 10.000000 
spine02 0.000000 0.000000 0.000000 0.000000 0.000000 0.000000 10.000000 
spine03 0.000000 0.000000 0.000000 0.000000 0.000000 0.000000 10.000000 
pelvis 0.000000 0.000000 0.000000 0.000000 0.000000 0.000000 10.000000 
null_rope03_connect 0.000000 0.000000 0.000000 0.000000 0.000000 0.000000 10.000000 
null_rope04_connect 0.000000 0.000000 0.000000 0.000000 0.000000 0.000000 10.000000 
Rope3_Seg01 0.000000 0.000000 0.000000 0.000000 0.000000 0.000000 10.000000 
Rope3_Seg02 0.000000 0.000000 0.000000 0.000000 0.000000 0.000000 10.000000 
Rope3_Seg03 0.000000 0.000000 0.000000 0.000000 0.000000 0.000000 10.000000 
Rope3_Seg04 0.000000 0.000000 0.000000 0.000000 0.000000 0.000000 10.000000 
Rope3_Seg05 0.000000 0.000000 0.000000 0.000000 0.000000 0.000000 10.000000 
Rope3_Seg06 0.000000 0.000000 0.000000 0.000000 0.000000 0.000000 10.000000 
Rope3_Seg07 0.000000 0.000000 0.000000 0.000000 0.000000 0.000000 10.000000 
Rope3_Seg08 0.000000 0.000000 0.000000 0.000000 0.000000 0.000000 10.000000 
Rope3_Seg09 0.000000 0.000000 0.000000 0.000000 0.000000 0.000000 10.000000 
R_rear_hand01 0.000000 0.000000 0.000000 0.000000 0.000000 0.000000 10.000000 
R_rear_hand02 0.000000 0.000000 0.000000 0.000000 0.000000 0.000000 10.000000 
R_rear_hand03 0.000000 0.000000 0.000000 0.000000 0.000000 0.000000 10.000000 
Rope4_Seg01 0.000000 0.000000 0.000000 0.000000 0.000000 0.000000 10.000000 
Rope4_Seg02 0.000000 0.000000 0.000000 0.000000 0.000000 0.000000 10.000000 
Rope4_Seg03 0.000000 0.000000 0.000000 0.000000 0.000000 0.000000 10.000000 
Rope4_Seg04 0.000000 0.000000 0.000000 0.000000 0.000000 0.000000 10.000000 
Rope4_Seg05 0.000000 0.000000 0.000000 0.000000 0.000000 0.000000 10.000000 
Rope4_Seg06 0.000000 0.000000 0.000000 0.000000 0.000000 0.000000 10.000000 
Rope4_Seg07 0.000000 0.000000 0.000000 0.000000 0.000000 0.000000 10.000000 
Rope4_Seg08 0.000000 0.000000 0.000000 0.000000 0.000000 0.000000 10.000000 
Rope4_Seg09 0.000000 0.000000 0.000000 0.000000 0.000000 0.000000 10.000000 
L_rear_hand01 0.000000 0.000000 0.000000 0.000000 0.000000 0.000000 10.000000 
L_rear_hand02 0.000000 0.000000 0.000000 0.000000 0.000000 0.000000 10.000000 
L_rear_hand03 0.000000 0.000000 0.000000 0.000000 0.000000 0.000000 10.000000 
#Beginning of Data. Separated by tabs
#Fr	Tx	Ty	Tz	Rx	Ry	Rz	SF
[MASTER]
54 0.000000 0.000000 0.000000 0.001660 0.001660 0.001660 0.000000
55 0.000000 0.000000 0.000000 0.001660 0.001660 0.001660 0.000000
[root]
54 -61.081699 -62.822140 950.587097 -86.332306 -7.490437 -91.471924 954.616882
55 -67.852661 -62.822147 961.354431 -86.247177 -6.945013 -91.131973 965.791382
[chest]
54 -84.512650 -34.090519 0.000000 -0.307809 -0.743092 156.385437 91.129311
55 -84.512650 -34.090519 0.000000 -0.307809 -0.743092 156.385437 91.129311
[L_mid_tent01]
54 23.228750 24.509907 -223.761200 -12.495070 -0.543418 -6.111170 226.294907
55 23.228750 24.509907 -223.761200 -12.897858 1.259218 -7.352794 226.294907
[R_mid_tent01]
54 23.228794 24.509907 226.238495 -158.084396 -23.345770 -28.871855 228.744751
55 23.228794 24.509907 226.238495 -158.121277 -22.463850 -28.984438 228.744751
[spine01]
54 -0.361383 -0.195265 0.000000 0.001815 0.001488 11.320962 0.410763
55 -0.361383 -0.195265 0.000000 0.001815 0.001488 11.320962 0.410763
[Bip01_Neck]
54 165.484543 71.581718 0.000119 175.896118 1.177290 24.871183 180.302734
55 165.484543 71.581718 0.000119 175.896118 1.177290 24.871183 180.302734
[L_humerus]
54 -13.983130 -135.272980 -120.471481 -104.702057 -2.574140 -132.238052 181.680161
55 -13.983130 -135.272980 -120.471481 -104.702057 -2.574140 -132.238052 181.680161
[R_humerus]
54 -13.983309 -135.273102 125.287651 84.935959 -3.633308 -127.041824 184.909012
55 -13.983309 -135.273102 125.287651 84.935959 -3.633308 -127.041824 184.909012
[weapon_bone]
54 235.964890 -300.705902 0.000000 0.000000 -89.951546 -128.212341 382.234833
55 235.964890 -300.705902 0.000000 0.000000 -89.951546 -128.212341 382.234833
[Bip01_Head]
54 201.313858 211.516800 15.929721 4.509319 10.936911 -64.053543 292.438690
55 201.313858 211.516800 15.929721 4.192974 10.755991 -64.054604 292.438690
[eye_left_bone]
54 -24.626970 125.451866 -64.772606 0.000000 -90.000000 -99.840431 143.318359
55 -24.626970 125.451866 -64.772606 0.000000 -90.000000 -99.840431 143.318359
[eye_right_bone]
54 -24.626970 125.451866 64.327362 0.000000 -89.965736 80.156380 143.117676
55 -24.626970 125.451866 64.327362 0.000000 -89.965736 80.156380 143.117676
[L_forearm]
54 322.776093 0.000000 -0.000119 0.000357 -0.002320 -107.506004 322.776093
55 322.776093 0.000000 -0.000119 0.000357 -0.002320 -107.506004 322.776093
[L_front_hand]
54 241.149185 -0.042021 -3.300071 -177.752777 -0.319468 -73.408745 241.171753
55 241.149185 -0.042021 -3.300071 -177.752777 -0.319468 -73.408745 241.171753
[L_weapon_bone]
54 156.183838 0.000000 0.000000 0.000014 0.000007 0.000001 156.183838
55 156.183838 0.000000 0.000000 0.000014 0.000007 0.000001 156.183838
[L_front_hand01_01]
54 86.095154 20.947098 -0.655860 0.139491 -0.584553 24.181786 88.609184
55 86.095154 20.947098 -0.655860 0.139491 -0.584553 24.181786 88.609184
[L_front_hand02_01]
54 86.935165 -11.437475 24.513514 119.190460 -21.905655 -12.119137 91.046425
55 86.935165 -11.437475 24.513514 119.190460 -21.905655 -12.119137 91.046425
[L_front_hand03_01]
54 86.637497 -14.123976 -20.424902 -120.437630 20.554037 -14.327168 90.126129
55 86.637497 -14.123976 -20.424902 -120.437630 20.554031 -14.327168 90.126129
[L_front_hand01_02]
54 71.020905 -0.000179 0.000030 0.000334 -0.002323 -106.379684 71.020905
55 71.020905 -0.000179 0.000030 0.000334 -0.002323 -106.379684 71.020905
[L_front_hand02_02]
54 71.020927 -0.000119 0.000060 0.000334 -0.002323 -106.379684 71.020927
55 71.020927 -0.000119 0.000060 0.000334 -0.002323 -106.379684 71.020927
[L_front_hand03_02]
54 71.020905 -0.000060 0.000060 0.000334 -0.002323 -106.379684 71.020905
55 71.020905 -0.000060 0.000060 0.000334 -0.002323 -106.379684 71.020905
[R_forearm]
54 322.776428 -0.000060 0.000030 0.213176 0.008105 -93.737396 322.776428
55 322.776428 -0.000060 0.000030 0.213176 0.008105 -93.737396 322.776428
[R_front_hand]
54 238.847015 -0.006795 2.210259 -1.721140 -0.139412 -83.351707 238.857239
55 238.847015 -0.006795 2.210259 -1.721140 -0.139412 -83.351707 238.857239
[R_weapon_bone]
54 155.664093 0.002503 -0.000030 0.003487 0.001180 -90.988930 155.664078
55 155.664093 0.002503 -0.000030 0.003487 0.001180 -90.988930 155.664078
[R_front_hand01_01]
54 87.624611 14.231146 22.918642 -119.218056 -22.033409 12.303375 91.683487
55 87.624611 14.231146 22.918642 -119.218056 -22.033409 12.303375 91.683487
[R_front_hand02_01]
54 89.356956 14.367283 -19.491137 120.545532 20.947184 14.823009 92.579636
55 89.356956 14.367283 -19.491137 120.545532 20.947184 14.823009 92.579636
[R_front_hand03_01]
54 87.286232 -22.307278 -0.143439 -0.231628 -0.392922 -24.567768 90.091743
55 87.286232 -22.307278 -0.143439 -0.231628 -0.392922 -24.567768 90.091743
[R_front_hand01_02]
54 71.020905 0.000060 0.000119 0.002323 -0.000334 106.381714 71.020905
55 71.020905 0.000060 0.000119 0.002323 -0.000334 106.381714 71.020905
[R_front_hand02_02]
54 71.020844 -0.000030 -0.000119 0.002323 -0.000334 106.381714 71.020836
55 71.020844 -0.000030 -0.000119 0.002323 -0.000334 106.381714 71.020836
[R_front_hand03_02]
54 71.020905 0.000000 0.000030 0.002323 -0.000334 106.381714 71.020905
55 71.020905 0.000000 0.000030 0.002323 -0.000334 106.381714 71.020905
[null_rope01_connect]
54 328.732483 0.000000 -0.000238 -158.517487 -80.710854 -97.958183 328.732483
55 328.732483 0.000000 -0.000238 -149.258362 -80.137093 -106.764267 328.732483
[Rope1_Seg01]
54 0.000000 0.000000 0.000000 42.056366 -35.754436 -114.144165 0.000000
55 0.000000 0.000000 0.000000 45.504951 -37.157108 -117.413918 0.000000
[Rope1_Seg02]
54 139.999863 -0.000179 0.000000 -5.825663 14.291368 -7.455703 139.999863
55 139.999863 -0.000179 0.000000 -11.575410 20.784439 -2.289944 139.999863
[Rope1_Seg03]
54 139.999924 0.000060 -0.000060 -23.052111 22.243542 -4.240337 139.999924
55 139.999924 0.000060 -0.000060 -30.481209 32.459854 15.086430 139.999924
[Rope1_Seg04]
54 139.999924 -0.000060 -0.000119 19.618134 -9.308645 -7.580397 139.999924
55 139.999924 -0.000060 -0.000119 25.886202 -1.902897 -24.024078 139.999924
[Rope1_Seg05]
54 139.999832 0.000119 -0.000060 13.510969 -13.244149 -1.844662 139.999832
55 139.999832 0.000119 -0.000060 36.640984 -15.157629 -18.584425 139.999832
[Rope1_Seg06]
54 139.999954 0.000119 -0.000060 2.516570 -3.345659 0.126155 139.999954
55 139.999954 0.000119 -0.000060 5.927551 -4.885600 -1.679016 139.999954
[Rope1_Seg07]
54 139.999985 0.000060 0.000000 1.256290 -1.795005 0.110606 139.999985
55 139.999985 0.000060 0.000000 2.802003 -2.619515 -0.651277 139.999985
[Rope1_Seg09]
54 121.602913 0.000119 -0.000089 -89.793175 -1.359789 0.847147 121.602913
55 121.602913 0.000119 -0.000089 -89.793175 -1.359789 0.847147 121.602913
[L_mid_hand01]
54 103.859421 1.038730 8.195221 106.855484 -31.239275 -9.461397 104.187431
55 103.859421 1.038730 8.195221 106.855484 -31.239275 -9.461397 104.187431
[L_mid_hand02]
54 105.572853 -4.139662 -10.864139 -142.331345 25.752670 -28.774628 106.211075
55 105.572853 -4.139662 -10.864139 -142.331345 25.752670 -28.774628 106.211075
[L_mid_hand03]
54 104.641464 17.579376 -3.913581 -16.122810 9.734291 34.223598 106.179977
55 104.641464 17.579376 -3.913581 -16.122810 9.734291 34.223598 106.179977
[null_rope02_connect]
54 328.732849 0.000179 -0.000119 -105.170471 58.617279 -48.056904 328.732849
55 328.732849 0.000179 -0.000119 -106.736855 58.823460 -49.352791 328.732849
[Rope2_Seg01]
54 0.000119 0.000114 -0.000135 69.229904 -32.146725 -85.354820 0.000213
55 0.000118 0.000114 -0.000137 70.957085 -26.762712 -85.096901 0.000214
[Rope2_Seg02]
54 139.999741 -0.000060 -0.000119 2.330109 -1.093071 -4.840331 139.999756
55 139.999741 -0.000060 -0.000119 0.956997 0.245928 -2.004441 139.999756
[Rope2_Seg03]
54 140.000107 0.000030 0.000000 2.108563 -1.348930 -4.070575 140.000107
55 140.000107 0.000030 0.000000 0.198366 0.898183 -0.778275 140.000107
[Rope2_Seg04]
54 139.999802 0.000000 -0.000060 1.303685 -1.993558 -2.039457 139.999802
55 139.999802 0.000000 -0.000060 -1.511300 2.530986 1.610801 139.999802
[Rope2_Seg05]
54 139.999985 -0.000060 0.000119 2.942774 -0.232687 -6.493731 139.999985
55 139.999985 -0.000060 0.000119 4.887780 -3.695528 -6.677463 139.999985
[Rope2_Seg06]
54 139.999893 -0.000030 -0.000119 4.640949 0.746837 -9.418111 139.999893
55 139.999893 -0.000030 -0.000119 8.537931 -8.684970 -11.471658 139.999893
[Rope2_Seg07]
54 139.999893 0.000060 -0.000060 3.525757 -0.235190 -5.980550 139.999893
55 139.999893 0.000060 -0.000060 3.828512 -5.643438 -5.802742 139.999893
[Rope2_Seg09]
54 121.338966 0.000089 -0.000060 33.793236 -1.359788 -0.847141 121.338966
55 121.338966 0.000089 -0.000060 33.793236 -1.359788 -0.847141 121.338966
[R_mid_hand01]
54 104.680779 11.144459 -10.335981 -41.523792 25.424656 28.595957 105.778534
55 104.680779 11.144459 -10.335981 -41.523792 25.424656 28.595957 105.778534
[R_mid_hand02]
54 104.070427 2.443552 8.231699 72.847389 -32.746803 10.013901 104.424065
55 104.070427 2.443552 8.231699 72.847389 -32.746803 10.013901 104.424065
[R_mid_hand03]
54 106.028137 -11.221827 -5.996406 -167.901306 10.259192 -37.009720 106.788818
55 106.028137 -11.221827 -5.996406 -167.901306 10.259192 -37.009720 106.788818
[spine02]
54 129.756927 0.001550 0.000119 0.001147 -1.797837 -7.854275 129.756927
55 129.756927 0.001550 0.000119 0.001147 -1.797837 -7.854275 129.756927
[spine03]
54 79.115631 0.000000 -0.000119 1.459971 -2.848092 23.765963 79.115631
55 79.115631 0.000000 -0.000119 1.459971 -2.848092 23.765963 79.115631
[pelvis]
54 169.435242 0.051022 0.000000 -0.000005 0.000003 -4.322055 169.435257
55 169.435242 0.051022 0.000000 -0.000005 0.000003 -4.322055 169.435257
[null_rope03_connect]
54 -1.257226 -2.466202 137.391083 27.882706 -83.363686 46.820011 137.418976
55 -1.257226 -2.466202 137.391083 29.512726 -83.118607 44.619717 137.418976
[null_rope04_connect]
54 -1.259640 -2.480268 -137.844437 27.882706 -83.363686 46.820011 137.872513
55 -1.259640 -2.480268 -137.844437 29.512726 -83.118607 44.619717 137.872513
[Rope3_Seg01]
54 0.000010 0.000004 -0.000018 -127.649185 5.941108 -57.048203 0.000021
55 0.000010 0.000004 -0.000015 -125.857384 6.455954 -50.330791 0.000018
[Rope3_Seg02]
54 139.999924 -0.000119 0.000060 -0.793694 6.625659 2.953270 139.999924
55 139.999924 -0.000119 0.000060 -0.862223 5.040585 2.761087 139.999924
[Rope3_Seg03]
54 139.999924 -0.000119 0.000119 -0.299141 8.969569 4.200850 139.999924
55 139.999924 -0.000119 0.000119 -0.688244 7.027855 4.023432 139.999924
[Rope3_Seg04]
54 139.999924 0.000119 0.000000 1.052295 12.779839 6.348539 139.999924
55 139.999924 0.000119 0.000000 -0.052282 10.051284 6.051946 139.999924
[Rope3_Seg05]
54 139.999924 -0.000238 0.000060 5.767031 19.473051 10.372488 139.999924
55 139.999924 -0.000238 0.000060 3.279632 17.159254 12.638161 139.999924
[Rope3_Seg06]
54 139.999893 -0.000119 -0.000060 3.946934 8.165773 2.595565 139.999893
55 139.999893 -0.000119 -0.000060 5.163177 13.917387 7.538935 139.999893
[Rope3_Seg07]
54 139.999771 0.000060 -0.000119 -0.535867 -4.945911 -3.723260 139.999771
55 139.999771 0.000060 -0.000119 3.133586 3.285725 -2.982498 139.999771
[Rope3_Seg08]
54 139.999985 -0.000060 0.000000 -0.075388 -4.008814 -3.173157 139.999985
55 139.999985 -0.000060 0.000000 2.072790 0.872423 -3.544703 139.999985
[Rope3_Seg09]
54 90.185997 -0.000179 -0.000060 89.793228 -1.359877 -0.847183 90.185997
55 90.185997 -0.000179 -0.000060 89.793228 -1.359877 -0.847183 90.185997
[R_rear_hand01]
54 103.366196 -6.073594 -10.757982 -161.551193 16.666374 -30.088671 104.101845
55 103.366196 -6.073594 -10.757982 -161.551193 16.666374 -30.088671 104.101845
[R_rear_hand02]
54 100.509819 12.039542 -7.992327 -34.280552 19.289745 28.875523 101.543350
55 100.509819 12.039542 -7.992327 -34.280552 19.289745 28.875523 101.543350
[R_rear_hand03]
54 101.539970 5.215704 5.435467 83.366440 -30.933914 7.284830 101.819031
55 101.539970 5.215704 5.435467 83.366440 -30.933914 7.284830 101.819031
[Rope4_Seg01]
54 0.000010 0.000038 -0.000114 28.688387 0.323301 -37.154221 0.000121
55 0.000010 0.000038 -0.000114 18.172686 -3.111384 -32.458965 0.000121
[Rope4_Seg02]
54 139.999985 0.000060 0.000119 13.656943 -19.010769 -23.610264 139.999985
55 139.999985 0.000060 0.000119 17.738050 -8.498566 -21.165474 139.999985
[Rope4_Seg03]
54 139.999924 0.000000 -0.000238 5.145984 -20.123302 -17.796045 139.999924
55 139.999924 0.000000 -0.000238 8.607417 -15.519541 -20.530462 139.999924
[Rope4_Seg04]
54 139.999985 0.000000 0.000119 1.273633 -13.788109 -11.434762 139.999985
55 139.999985 0.000000 0.000119 3.375620 -13.444016 -16.722778 139.999985
[Rope4_Seg05]
54 139.999802 -0.000060 -0.000119 -0.026816 -4.289639 -3.204781 139.999802
55 139.999802 -0.000060 -0.000119 0.197831 -6.285622 -5.915930 139.999802
[Rope4_Seg06]
54 139.999924 0.000000 0.000060 0.214388 -0.750034 -0.009635 139.999924
55 139.999924 0.000000 0.000060 0.315822 -3.533133 -0.720595 139.999924
[Rope4_Seg07]
54 139.999802 0.000000 0.000000 0.665929 2.151594 2.962664 139.999802
55 139.999802 0.000000 0.000000 0.999033 -2.953439 2.969496 139.999802
[Rope4_Seg08]
54 139.999924 0.000000 0.000119 -1.062527 1.732527 2.587626 139.999924
55 139.999924 0.000000 0.000119 -0.652998 -2.964183 2.160920 139.999924
[Rope4_Seg09]
54 90.185791 0.000060 0.000060 -135.617828 2.228885 0.850567 90.185791
55 90.185791 0.000060 0.000060 -135.617828 2.228885 0.850567 90.185791
[L_rear_hand01]
54 101.696655 -8.392275 -7.654577 -34.454281 -18.946800 151.655121 102.329041
55 101.696655 -8.392275 -7.654577 -34.454281 -18.946800 151.655121 102.329041
[L_rear_hand02]
54 102.726799 -1.568258 5.773216 83.407906 30.330435 172.796509 102.900848
55 102.726799 -1.568258 5.773216 83.407906 30.330435 172.796509 102.900848
[L_rear_hand03]
54 104.552910 9.721220 -10.420293 -161.379868 -16.473232 -150.512238 105.519653
55 104.552910 9.721220 -10.420293 -161.379868 -16.473232 -150.512238 105.519653
